<svg xmlns="http://www.w3.org/2000/svg" viewBox="0 0 200 200">
  <!-- Background -->
  <rect x="10" y="10" width="180" height="180" rx="40" fill="#000000"/>
  
  <!-- Letter С -->
  <path d="M75 55 
           A 45 45 0 1 0 75 145
           L75 120
           A 20 20 0 1 1 75 80
           Z" fill="#74bc1f"/>
  
  <!-- Letter Б (stylized as T for team) -->
  <path d="M95 55 
           L145 55 
           L145 70 
           L115 70 
           L115 90
           Q140 90 140 110 
           Q140 130 115 130
           L115 145
           L95 145
           Z
           M115 105 
           L115 115
           Q125 115 125 110
           Q125 105 115 105Z" fill="#74bc1f"/>
  
  <!-- Small dot -->
  <circle cx="155" cy="45" r="8" fill="#ffffff"/>
</svg>